<svg width="379" height="379" viewBox="0 0 379 379" fill="none" xmlns="http://www.w3.org/2000/svg">
<path d="M150.637 170.512H175.201V146.786C164.062 150.861 155.095 159.525 150.637 170.512ZM178.497 177.102H146.019C144.984 177.102 144.01 176.617 143.386 175.79C142.764 174.965 142.564 173.895 142.85 172.901C147.6 156.304 160.948 143.363 177.687 139.13C178.674 138.881 179.718 139.099 180.521 139.724C181.324 140.349 181.793 141.308 181.793 142.325V173.807C181.793 175.627 180.317 177.102 178.497 177.102Z" fill="#D9D9D9"/>
<path d="M178.497 177.102H146.019C144.984 177.102 144.01 176.617 143.386 175.79C142.764 174.965 142.564 173.895 142.85 172.901C147.6 156.304 160.948 143.363 177.687 139.13C178.674 138.881 179.718 139.099 180.521 139.724C181.324 140.349 181.793 141.308 181.793 142.325V173.807C181.793 175.627 180.317 177.102 178.497 177.102M150.637 170.512H175.201V146.786C164.062 150.861 155.095 159.525 150.637 170.512Z" stroke="#D9D9D9" stroke-width="2.5"/>
<path d="M204.131 170.512H228.691C224.235 159.525 215.268 150.861 204.131 146.786V170.512ZM233.309 177.102H200.835C199.012 177.102 197.536 175.627 197.536 173.807V142.325C197.536 141.308 198.006 140.349 198.807 139.724C199.61 139.1 200.654 138.881 201.643 139.13C218.38 143.363 231.731 156.304 236.479 172.901C236.764 173.895 236.565 174.965 235.942 175.79C235.32 176.617 234.344 177.102 233.309 177.102Z" fill="#D9D9D9"/>
<path d="M233.309 177.102H200.835C199.012 177.102 197.536 175.627 197.536 173.807V142.325C197.536 141.308 198.006 140.349 198.807 139.724C199.61 139.1 200.654 138.881 201.643 139.13C218.38 143.363 231.731 156.304 236.479 172.901C236.764 173.895 236.565 174.965 235.942 175.79C235.32 176.617 234.344 177.102 233.309 177.102M204.131 170.512H228.691C224.235 159.525 215.268 150.861 204.131 146.786V170.512Z" stroke="#D9D9D9" stroke-width="2.5"/>
<path d="M149.664 199.428C153.672 211.577 163.189 221.412 175.201 225.826V199.428H149.664ZM178.498 233.587C178.225 233.587 177.955 233.554 177.687 233.487C160.014 229.017 146.055 214.633 142.124 196.843C141.909 195.868 142.148 194.848 142.776 194.068C143.399 193.29 144.345 192.837 145.345 192.837H178.498C180.318 192.837 181.794 194.312 181.794 196.132V230.291C181.794 231.308 181.325 232.266 180.522 232.892C179.937 233.347 179.223 233.587 178.498 233.587Z" fill="#D9D9D9"/>
<path d="M178.498 233.587C178.225 233.587 177.955 233.554 177.687 233.487C160.014 229.017 146.055 214.633 142.124 196.843C141.909 195.868 142.148 194.848 142.776 194.068C143.399 193.29 144.345 192.837 145.345 192.837H178.498C180.318 192.837 181.794 194.312 181.794 196.132V230.291C181.794 231.308 181.325 232.266 180.522 232.892C179.937 233.347 179.223 233.587 178.498 233.587M149.664 199.428C153.672 211.577 163.189 221.412 175.201 225.826V199.428H149.664Z" stroke="#D9D9D9" stroke-width="2.5"/>
<path d="M204.131 199.428V225.826C216.143 221.412 225.659 211.577 229.667 199.428H204.131ZM200.835 233.587C200.107 233.587 199.392 233.347 198.807 232.892C198.006 232.266 197.536 231.308 197.536 230.291V196.132C197.536 194.312 199.012 192.837 200.835 192.837H233.986C234.984 192.837 235.929 193.29 236.557 194.068C237.18 194.848 237.421 195.868 237.205 196.843C233.276 214.633 219.315 229.017 201.643 233.487C201.374 233.554 201.103 233.587 200.835 233.587Z" fill="#D9D9D9" stroke="#D9D9D9" stroke-width="2.5"/>
<path d="M169.133 349.482C167.661 349.482 166.462 350.68 166.462 352.152C166.462 353.623 167.661 354.821 169.133 354.821H177.979C179.211 354.821 180.341 355.508 180.908 356.604L187.294 368.967C187.965 370.27 189.176 370.41 189.664 370.41C190.153 370.41 191.363 370.27 192.038 368.967L198.424 356.604C198.988 355.508 200.118 354.821 201.353 354.821H210.197C211.67 354.821 212.866 353.623 212.866 352.152C212.866 350.68 211.67 349.482 210.197 349.482H200.835C199.013 349.482 197.537 348.008 197.537 346.187V196.132C197.537 194.312 199.013 192.837 200.835 192.837H249.376C251.185 192.837 252.679 194.312 252.679 196.132V205.491C252.679 206.963 253.874 208.161 255.332 208.161C256.809 208.161 258.003 206.963 258.003 205.491V196.65C258.003 195.419 258.706 194.288 259.796 193.722L272.166 187.34C273.467 186.667 273.607 185.459 273.607 184.97C273.607 184.48 273.467 183.272 272.166 182.599L259.796 176.215C258.706 175.651 258.003 174.52 258.003 173.287V164.448C258.003 162.976 256.809 161.778 255.332 161.778C253.874 161.778 252.679 162.976 252.679 164.448V173.807C252.679 175.627 251.185 177.102 249.376 177.102H200.835C199.013 177.102 197.537 175.627 197.537 173.807V124.31C197.537 122.491 199.013 121.016 200.835 121.016H210.197C211.67 121.016 212.866 119.818 212.866 118.346C212.866 116.876 211.67 115.678 210.197 115.678H201.353C200.118 115.678 198.988 114.99 198.424 113.895L192.038 101.533C191.363 100.228 190.153 100.087 189.664 100.087C189.176 100.087 187.965 100.228 187.294 101.533L180.908 113.895C180.341 114.99 179.211 115.678 177.979 115.678H169.133C167.661 115.678 166.462 116.876 166.462 118.346C166.462 119.818 167.661 121.016 169.133 121.016H178.497C180.318 121.016 181.794 122.491 181.794 124.31V173.807C181.794 175.627 180.318 177.102 178.497 177.102H129.957C128.136 177.102 126.66 175.627 126.66 173.807V164.448C126.66 162.976 125.462 161.778 123.989 161.778C122.517 161.778 121.32 162.976 121.32 164.448V173.287C121.32 174.52 120.631 175.651 119.535 176.215L107.167 182.599C105.864 183.272 105.723 184.48 105.723 184.97C105.723 185.459 105.864 186.667 107.167 187.34L119.535 193.722C120.631 194.288 121.32 195.419 121.32 196.65V205.491C121.32 206.963 122.517 208.161 123.989 208.161C125.462 208.161 126.66 206.963 126.66 205.491V196.132C126.66 194.312 128.136 192.837 129.957 192.837H178.497C180.318 192.837 181.794 194.312 181.794 196.132V346.187C181.794 348.008 180.318 349.482 178.497 349.482H169.133ZM189.664 377C186.185 377 183.031 375.082 181.434 371.989L175.969 361.409H169.133C164.025 361.409 159.869 357.257 159.869 352.152C159.869 347.048 164.025 342.892 169.133 342.892H175.201V199.428H133.253V205.491C133.253 210.597 129.097 214.751 123.989 214.751C118.883 214.751 114.727 210.597 114.727 205.491V198.657L104.142 193.197C101.049 191.601 99.1283 188.448 99.1283 184.97C99.1283 181.491 101.049 178.339 104.142 176.742L114.727 171.282V164.448C114.727 159.342 118.883 155.188 123.989 155.188C129.097 155.188 133.253 159.342 133.253 164.448V170.512H175.201V127.605H169.133C164.025 127.605 159.869 123.452 159.869 118.346C159.869 113.242 164.025 109.088 169.133 109.088H175.969L181.434 98.5083C183.031 95.4189 186.185 93.4975 189.664 93.4975C193.147 93.4975 196.301 95.4189 197.897 98.5083L203.36 109.088H210.197C215.305 109.088 219.459 113.242 219.459 118.346C219.459 123.452 215.305 127.605 210.197 127.605H204.131V170.512H246.072V164.448C246.072 159.342 250.237 155.188 255.332 155.188C260.446 155.188 264.61 159.342 264.61 164.448V171.282L275.189 176.742C278.281 178.339 280.197 181.491 280.197 184.97C280.197 188.448 278.281 191.601 275.189 193.197L264.61 198.657V205.491C264.61 210.597 260.446 214.751 255.332 214.751C250.237 214.751 246.072 210.597 246.072 205.491V199.428H204.131V342.892H210.197C215.305 342.892 219.459 347.048 219.459 352.152C219.459 357.257 215.305 361.409 210.197 361.409H203.36L197.897 371.989C196.301 375.082 193.147 377 189.664 377Z" fill="#D9D9D9" stroke="#D9D9D9" stroke-width="2.5"/>
<path d="M189.664 71.6031C188.543 71.6031 187.636 70.6951 187.636 69.5746V36.8085C187.636 35.688 188.543 34.7817 189.664 34.7817C190.785 34.7817 191.692 35.688 191.692 36.8085V69.5746C191.692 70.6951 190.785 71.6031 189.664 71.6031Z" fill="#D9D9D9" stroke="#D9D9D9" stroke-width="2.5"/>
<path d="M189.664 89.5019C188.543 89.5019 187.636 88.5939 187.636 87.4751V82.0129C187.636 80.8942 188.543 79.9861 189.664 79.9861C190.785 79.9861 191.692 80.8942 191.692 82.0129V87.4751C191.692 88.5939 190.785 89.5019 189.664 89.5019Z" fill="#D9D9D9" stroke="#D9D9D9" stroke-width="2.5"/>
<path d="M157.585 95.0044C156.757 95.0044 155.979 94.4933 155.678 93.6714L123.288 4.72047C122.905 3.66843 123.448 2.50407 124.501 2.12295C125.553 1.74007 126.718 2.281 127.101 3.3348L159.492 92.2839C159.875 93.3359 159.332 94.4986 158.279 94.8832C158.051 94.9658 157.815 95.0044 157.585 95.0044Z" fill="#D9D9D9"/>
<path d="M157.585 95.0044C156.757 95.0044 155.979 94.4933 155.678 93.6714L123.288 4.72048C122.905 3.66844 123.448 2.50407 124.501 2.12295C125.553 1.74007 126.718 2.281 127.101 3.3348L159.492 92.2839C159.875 93.3359 159.332 94.4986 158.279 94.8832C158.051 94.9658 157.815 95.0044 157.585 95.0044" stroke="#D9D9D9" stroke-width="2.5"/>
<path d="M129.377 111.284C128.797 111.284 128.222 111.038 127.822 110.56L94.5052 70.876C93.7865 70.0171 93.8971 68.7385 94.7547 68.0184C95.6139 67.2983 96.8933 67.4108 97.6137 68.2678L130.928 107.952C131.651 108.811 131.538 110.089 130.681 110.81C130.299 111.129 129.835 111.284 129.377 111.284Z" fill="#D9D9D9" stroke="#D9D9D9" stroke-width="2.5"/>
<path d="M108.436 136.225C108.09 136.225 107.742 136.138 107.421 135.953L25.4052 88.6237C24.4352 88.0634 24.1014 86.8234 24.6637 85.854C25.2225 84.8845 26.463 84.5508 27.4347 85.1128L109.452 132.44C110.42 133.001 110.754 134.241 110.194 135.21C109.819 135.862 109.136 136.225 108.436 136.225Z" fill="#D9D9D9" stroke="#D9D9D9" stroke-width="2.5"/>
<path d="M97.2989 166.821C97.1812 166.821 97.0616 166.81 96.9438 166.789L44.2755 157.507C43.172 157.312 42.434 156.262 42.629 155.157C42.8241 154.054 43.8784 153.32 44.9784 153.513L97.6484 162.795C98.752 162.988 99.4883 164.04 99.2932 165.143C99.121 166.127 98.2654 166.821 97.2989 166.821Z" fill="#D9D9D9" stroke="#D9D9D9" stroke-width="2.5"/>
<path d="M4.02687 215.815C3.06217 215.815 2.20477 215.123 2.03081 214.139C1.83752 213.036 2.5738 211.984 3.67732 211.79L16.8105 209.476C17.914 209.281 18.9667 210.016 19.1617 211.12C19.355 212.223 18.6188 213.275 17.5152 213.469L4.38191 215.783C4.26243 215.804 4.1446 215.815 4.02687 215.815Z" fill="#D9D9D9"/>
<path d="M4.02687 215.815C3.06217 215.815 2.20477 215.123 2.03081 214.139C1.83752 213.036 2.5738 211.984 3.67732 211.79L16.8105 209.476C17.914 209.281 18.9667 210.016 19.1617 211.12C19.355 212.223 18.6188 213.275 17.5152 213.469L4.38191 215.783C4.26243 215.804 4.1446 215.815 4.02687 215.815" stroke="#D9D9D9" stroke-width="2.5"/>
<path d="M24.5477 212.197C23.5847 212.197 22.7273 211.507 22.5533 210.521C22.3583 209.419 23.0946 208.368 24.1998 208.173L96.9441 195.354C98.0459 195.159 99.0985 195.895 99.2935 196.998C99.4886 198.101 98.7522 199.153 97.6487 199.348L24.9027 212.167C24.785 212.188 24.6672 212.197 24.5477 212.197Z" fill="#D9D9D9"/>
<path d="M24.5477 212.197C23.5847 212.197 22.7273 211.507 22.5533 210.521C22.3583 209.419 23.0946 208.368 24.1998 208.173L96.9441 195.354C98.0459 195.159 99.0985 195.895 99.2935 196.998C99.4886 198.101 98.7522 199.153 97.6487 199.348L24.9027 212.167C24.785 212.188 24.6672 212.197 24.5477 212.197" stroke="#D9D9D9" stroke-width="2.5"/>
<path d="M67.4304 253.638C66.7292 253.638 66.0475 253.274 65.6715 252.622C65.1109 251.653 65.4447 250.413 66.4147 249.853L107.421 226.188C108.392 225.628 109.633 225.961 110.194 226.931C110.754 227.902 110.42 229.142 109.452 229.701L68.4425 253.365C68.1227 253.55 67.7748 253.638 67.4304 253.638Z" fill="#D9D9D9"/>
<path d="M67.4304 253.638C66.7292 253.638 66.0475 253.274 65.6715 252.622C65.1109 251.653 65.4447 250.413 66.4147 249.853L107.421 226.188C108.392 225.628 109.633 225.961 110.194 226.931C110.754 227.902 110.42 229.142 109.452 229.701L68.4425 253.365C68.1227 253.55 67.7748 253.638 67.4304 253.638" stroke="#D9D9D9" stroke-width="2.5"/>
<path d="M68.4986 327.426C68.0382 327.426 67.5778 327.27 67.1965 326.95C66.339 326.232 66.2248 324.953 66.9453 324.094L83.5331 304.335C84.2535 303.478 85.5329 303.366 86.3921 304.086C87.2496 304.806 87.3621 306.083 86.6416 306.944L70.0555 326.702C69.6531 327.178 69.0785 327.426 68.4986 327.426Z" fill="#D9D9D9"/>
<path d="M68.4986 327.426C68.0382 327.426 67.5778 327.27 67.1965 326.95C66.339 326.232 66.2248 324.953 66.9453 324.094L83.5331 304.335C84.2535 303.478 85.5329 303.366 86.3921 304.086C87.2496 304.806 87.3621 306.083 86.6416 306.944L70.0555 326.702C69.6531 327.178 69.0785 327.426 68.4986 327.426" stroke="#D9D9D9" stroke-width="2.5"/>
<path d="M91.1522 300.444C90.6918 300.444 90.228 300.287 89.8484 299.969C88.9891 299.249 88.8784 297.969 89.5989 297.112L127.821 251.583C128.542 250.726 129.821 250.613 130.68 251.333C131.538 252.053 131.65 253.33 130.928 254.191L92.7056 299.718C92.3067 300.196 91.7303 300.444 91.1522 300.444Z" fill="#D9D9D9"/>
<path d="M91.1522 300.444C90.6918 300.444 90.228 300.287 89.8484 299.969C88.9891 299.249 88.8784 297.969 89.5989 297.112L127.821 251.583C128.542 250.726 129.821 250.613 130.68 251.333C131.538 252.053 131.65 253.33 130.928 254.191L92.7056 299.718C92.3067 300.196 91.7303 300.444 91.1522 300.444" stroke="#D9D9D9" stroke-width="2.5"/>
<path d="M138.097 324.705C137.869 324.705 137.635 324.667 137.405 324.583C136.351 324.2 135.809 323.037 136.191 321.983L155.678 268.471C156.061 267.419 157.228 266.878 158.279 267.26C159.331 267.642 159.874 268.807 159.491 269.859L140.004 323.371C139.705 324.194 138.927 324.705 138.097 324.705Z" fill="#D9D9D9"/>
<path d="M138.097 324.705C137.869 324.705 137.635 324.667 137.405 324.583C136.351 324.2 135.809 323.037 136.191 321.983L155.678 268.471C156.061 267.419 157.228 266.878 158.279 267.26C159.331 267.642 159.874 268.807 159.491 269.859L140.004 323.371C139.705 324.194 138.927 324.705 138.097 324.705" stroke="#D9D9D9" stroke-width="2.5"/>
<path d="M237.27 313.829C236.441 313.829 235.662 313.317 235.364 312.494L219.837 269.859C219.454 268.807 219.997 267.642 221.049 267.26C222.106 266.877 223.267 267.419 223.65 268.471L239.177 311.106C239.56 312.158 239.017 313.323 237.962 313.704C237.736 313.788 237.5 313.829 237.27 313.829Z" fill="#D9D9D9" stroke="#D9D9D9" stroke-width="2.5"/>
<path d="M310.824 327.426C310.244 327.426 309.682 327.178 309.278 326.702L275.347 286.291C274.626 285.434 274.749 284.154 275.593 283.433C276.454 282.713 277.736 282.826 278.457 283.685L312.388 324.094C313.109 324.953 312.986 326.232 312.125 326.95C311.756 327.27 311.281 327.426 310.824 327.426Z" fill="#D9D9D9" stroke="#D9D9D9" stroke-width="2.5"/>
<path d="M267.967 276.375C267.387 276.375 266.824 276.129 266.42 275.651L248.391 254.191C247.671 253.33 247.794 252.053 248.655 251.333C249.516 250.613 250.781 250.725 251.502 251.583L269.531 273.043C270.251 273.902 270.128 275.182 269.285 275.901C268.898 276.22 268.441 276.375 267.967 276.375Z" fill="#D9D9D9"/>
<path d="M267.967 276.375C267.387 276.375 266.824 276.129 266.42 275.651L248.391 254.191C247.671 253.33 247.794 252.053 248.655 251.333C249.516 250.613 250.781 250.725 251.502 251.583L269.531 273.043C270.251 273.902 270.128 275.182 269.285 275.901C268.898 276.22 268.441 276.375 267.967 276.375" stroke="#D9D9D9" stroke-width="2.5"/>
<path d="M321.596 259.23C321.245 259.23 320.893 259.142 320.577 258.957L269.882 229.7C268.915 229.142 268.581 227.902 269.144 226.931C269.689 225.961 270.936 225.628 271.903 226.188L322.598 255.445C323.582 256.005 323.916 257.247 323.353 258.216C322.967 258.866 322.299 259.23 321.596 259.23Z" fill="#D9D9D9" stroke="#D9D9D9" stroke-width="2.5"/>
<path d="M375.296 215.815C375.191 215.815 375.068 215.804 374.945 215.783L361.819 213.469C360.712 213.275 359.974 212.223 360.167 211.12C360.36 210.017 361.415 209.281 362.522 209.476L375.648 211.79C376.755 211.984 377.493 213.036 377.3 214.139C377.124 215.123 376.263 215.815 375.296 215.815Z" fill="#D9D9D9"/>
<path d="M375.296 215.815C375.191 215.815 375.068 215.804 374.945 215.783L361.819 213.469C360.712 213.275 359.974 212.223 360.167 211.12C360.36 210.017 361.415 209.282 362.522 209.476L375.648 211.79C376.755 211.984 377.493 213.036 377.3 214.139C377.124 215.123 376.263 215.815 375.296 215.815" stroke="#D9D9D9" stroke-width="2.5"/>
<path d="M338.026 209.246C337.903 209.246 337.797 209.236 337.674 209.215L281.69 199.348C280.583 199.153 279.845 198.101 280.038 196.998C280.232 195.895 281.286 195.161 282.393 195.354L338.377 205.221C339.484 205.414 340.223 206.466 340.012 207.569C339.854 208.553 338.992 209.246 338.026 209.246Z" fill="#D9D9D9" stroke="#D9D9D9" stroke-width="2.5"/>
<path d="M308.048 162.233C307.082 162.233 306.238 161.541 306.063 160.557C305.869 159.455 306.607 158.402 307.697 158.208L341.33 152.283C342.437 152.09 343.491 152.824 343.684 153.927C343.878 155.032 343.14 156.082 342.033 156.277L308.417 162.203C308.294 162.222 308.171 162.233 308.048 162.233Z" fill="#D9D9D9" stroke="#D9D9D9" stroke-width="2.5"/>
<path d="M280.39 167.11C279.424 167.11 278.563 166.418 278.387 165.433C278.194 164.33 278.932 163.278 280.039 163.085L292.55 160.879C293.657 160.686 294.711 161.42 294.905 162.523C295.098 163.626 294.36 164.678 293.253 164.873L280.741 167.079C280.618 167.1 280.513 167.11 280.39 167.11Z" fill="#D9D9D9" stroke="#D9D9D9" stroke-width="2.5"/>
<path d="M333.089 100.333C332.386 100.333 331.718 99.9695 331.331 99.3179C330.769 98.3484 331.103 97.1084 332.087 96.5482L351.891 85.1127C352.875 84.5507 354.105 84.8844 354.667 85.8539C355.229 86.8234 354.895 88.0633 353.929 88.6236L334.108 100.061C333.791 100.245 333.44 100.333 333.089 100.333Z" fill="#D9D9D9"/>
<path d="M333.089 100.333C332.386 100.333 331.718 99.9695 331.331 99.3179C330.769 98.3484 331.103 97.1084 332.087 96.5482L351.891 85.1127C352.875 84.5507 354.105 84.8844 354.667 85.8539C355.229 86.8234 354.895 88.0633 353.929 88.6236L334.108 100.061C333.791 100.245 333.44 100.333 333.089 100.333" stroke="#D9D9D9" stroke-width="2.5"/>
<path d="M268.511 137.604C267.809 137.604 267.123 137.241 266.754 136.591C266.192 135.621 266.526 134.381 267.492 133.821L313.619 107.206C314.585 106.644 315.815 106.977 316.377 107.947C316.94 108.918 316.606 110.158 315.639 110.718L269.513 137.332C269.197 137.516 268.845 137.604 268.511 137.604Z" fill="#D9D9D9"/>
<path d="M268.511 137.604C267.809 137.604 267.123 137.241 266.754 136.591C266.192 135.621 266.526 134.381 267.492 133.821L313.619 107.206C314.585 106.644 315.815 106.977 316.377 107.947C316.94 108.918 316.606 110.158 315.639 110.718L269.513 137.332C269.197 137.516 268.845 137.604 268.511 137.604" stroke="#D9D9D9" stroke-width="2.5"/>
<path d="M286.417 67.8481C285.96 67.8481 285.503 67.6935 285.117 67.3739C284.256 66.6555 284.15 65.3752 284.871 64.5181L293.042 54.7863C293.744 53.9292 295.027 53.8168 295.888 54.5369C296.749 55.257 296.855 56.5356 296.134 57.3944L287.981 67.1245C287.577 67.6022 286.997 67.8481 286.417 67.8481Z" fill="#D9D9D9"/>
<path d="M286.417 67.8481C285.96 67.8481 285.503 67.6935 285.117 67.3739C284.256 66.6555 284.15 65.3752 284.871 64.5181L293.042 54.7863C293.744 53.9292 295.027 53.8168 295.888 54.5369C296.749 55.257 296.855 56.5356 296.134 57.3944L287.981 67.1245C287.577 67.6022 286.997 67.8481 286.417 67.8481" stroke="#D9D9D9" stroke-width="2.5"/>
<path d="M247.724 113.934C247.267 113.934 246.81 113.78 246.423 113.46C245.562 112.742 245.457 111.461 246.177 110.602L278.844 71.6963C279.564 70.8392 280.829 70.7268 281.69 71.4468C282.551 72.1652 282.674 73.4455 281.954 74.3026L249.287 113.211C248.883 113.688 248.304 113.934 247.724 113.934Z" fill="#D9D9D9"/>
<path d="M247.724 113.934C247.267 113.934 246.81 113.78 246.423 113.46C245.562 112.742 245.457 111.461 246.177 110.602L278.844 71.6963C279.564 70.8392 280.829 70.7268 281.69 71.4468C282.551 72.1652 282.674 73.4455 281.954 74.3026L249.287 113.211C248.883 113.688 248.304 113.934 247.724 113.934" stroke="#D9D9D9" stroke-width="2.5"/>
<path d="M225.22 85.4622C224.989 85.4622 224.756 85.4236 224.525 85.3393C223.471 84.9564 222.93 83.7937 223.313 82.7399L252.222 3.33471C252.609 2.28091 253.786 1.74174 254.823 2.12286C255.877 2.50399 256.422 3.66835 256.036 4.72039L227.126 84.1274C226.828 84.9511 226.047 85.4622 225.22 85.4622Z" fill="#D9D9D9"/>
<path d="M225.22 85.4622C224.989 85.4622 224.756 85.4236 224.525 85.3393C223.471 84.9564 222.93 83.7937 223.313 82.7399L252.222 3.33471C252.609 2.28092 253.786 1.74174 254.823 2.12287C255.877 2.50399 256.422 3.66835 256.036 4.72039L227.126 84.1274C226.828 84.9511 226.047 85.4622 225.22 85.4622" stroke="#D9D9D9" stroke-width="2.5"/>
<path d="M220.749 97.7389C220.519 97.7389 220.283 97.7003 220.055 97.616C219.001 97.2331 218.459 96.0686 218.842 95.0166L220.781 89.6932C221.164 88.6412 222.327 88.0984 223.381 88.4813C224.434 88.8642 224.977 90.0269 224.594 91.0789L222.656 96.4041C222.357 97.2278 221.577 97.7389 220.749 97.7389Z" fill="#D9D9D9"/>
<path d="M220.749 97.7389C220.519 97.7389 220.283 97.7003 220.055 97.616C219.001 97.2331 218.459 96.0686 218.842 95.0166L220.781 89.6932C221.164 88.6412 222.327 88.0984 223.381 88.4813C224.434 88.8642 224.977 90.0269 224.594 91.0789L222.656 96.4041C222.357 97.2278 221.577 97.7389 220.749 97.7389" stroke="#D9D9D9" stroke-width="2.5"/>
</svg>
